<svg width="210" height="195" viewBox="0 0 210 195" fill="none" xmlns="http://www.w3.org/2000/svg">
<path d="M10.88 162.568L48.896 142.472V141.448L10.88 121.352V103.688L65.92 133.128V150.792L10.88 180.232L10.88 162.568Z" fill="url(#paint0_linear_16_10)"/>
<path d="M10.88 100.792V83.128L65.92 53.688V71.352L27.904 91.448V92.472L65.92 112.568V130.232L10.88 100.792Z" fill="url(#paint1_linear_16_10)"/>
<path d="M89.392 118.744V128.068H102.832V134.508H89.392V144.42H105.604V151H80.208V112.192H105.576L104.652 118.744H89.392ZM131.09 139.268C131.09 137.905 130.819 136.832 130.278 136.048C129.755 135.245 129.009 134.676 128.038 134.34C127.086 134.004 125.966 133.836 124.678 133.836H120.898V144.308H124.286C125.182 144.308 126.031 144.243 126.834 144.112C127.655 143.981 128.383 143.739 129.018 143.384C129.671 143.029 130.175 142.525 130.53 141.872C130.903 141.2 131.09 140.332 131.09 139.268ZM129.634 123.028C129.634 121.497 129.149 120.396 128.178 119.724C127.226 119.033 125.742 118.688 123.726 118.688H120.898V127.676H124.006C125.985 127.676 127.413 127.312 128.29 126.584C129.186 125.856 129.634 124.671 129.634 123.028ZM140.554 139.632C140.554 141.872 140.125 143.729 139.266 145.204C138.407 146.679 137.231 147.836 135.738 148.676C134.245 149.516 132.537 150.113 130.614 150.468C128.71 150.823 126.703 151 124.594 151H111.714V112.192H124.006C126.003 112.192 127.889 112.36 129.662 112.696C131.454 113.013 133.041 113.555 134.422 114.32C135.803 115.067 136.886 116.084 137.67 117.372C138.473 118.641 138.874 120.219 138.874 122.104C138.874 123.653 138.547 124.997 137.894 126.136C137.241 127.256 136.373 128.18 135.29 128.908C134.207 129.617 133.031 130.131 131.762 130.448C133.143 130.672 134.506 131.111 135.85 131.764C137.213 132.399 138.333 133.351 139.21 134.62C140.106 135.889 140.554 137.56 140.554 139.632ZM164.556 142.628H153.188L151.144 151H141.54L153.412 112.192H164.556L176.428 151H166.6L164.556 142.628ZM154.644 135.964H163.044L158.844 118.8L154.644 135.964ZM207.542 139.66C207.542 142.068 206.908 144.196 205.638 146.044C204.388 147.892 202.586 149.339 200.234 150.384C197.882 151.429 195.054 151.952 191.75 151.952C188.092 151.952 185.021 151.42 182.538 150.356C180.074 149.273 178.03 147.939 176.406 146.352L181.054 141.2C182.492 142.451 184.078 143.421 185.814 144.112C187.55 144.784 189.454 145.12 191.526 145.12C192.814 145.12 193.944 144.933 194.914 144.56C195.885 144.187 196.641 143.645 197.182 142.936C197.724 142.227 197.994 141.368 197.994 140.36C197.994 139.408 197.78 138.605 197.35 137.952C196.921 137.299 196.193 136.711 195.166 136.188C194.158 135.665 192.749 135.133 190.938 134.592C187.914 133.659 185.478 132.632 183.63 131.512C181.801 130.392 180.466 129.095 179.626 127.62C178.805 126.145 178.394 124.428 178.394 122.468C178.394 120.097 179.048 118.072 180.354 116.392C181.68 114.712 183.453 113.433 185.674 112.556C187.896 111.66 190.341 111.212 193.01 111.212C196.016 111.212 198.666 111.651 200.962 112.528C203.258 113.387 205.246 114.619 206.926 116.224L202.586 121.208C201.28 120.107 199.87 119.295 198.358 118.772C196.846 118.231 195.306 117.96 193.738 117.96C192.581 117.96 191.564 118.109 190.686 118.408C189.809 118.688 189.128 119.108 188.642 119.668C188.157 120.228 187.914 120.928 187.914 121.768C187.914 122.589 188.148 123.28 188.614 123.84C189.081 124.4 189.893 124.932 191.05 125.436C192.208 125.921 193.813 126.491 195.866 127.144C198.312 127.891 200.402 128.787 202.138 129.832C203.893 130.859 205.228 132.156 206.142 133.724C207.076 135.292 207.542 137.271 207.542 139.66Z" fill="#FF8F00"/>
<defs>
<linearGradient id="paint0_linear_16_10" x1="98.9217" y1="171.385" x2="-3.28578" y2="97.469" gradientUnits="userSpaceOnUse">
<stop offset="0.0662314" stop-color="#995600"/>
<stop offset="0.692308" stop-color="#FF8F00"/>
</linearGradient>
<linearGradient id="paint1_linear_16_10" x1="92.5409" y1="123.507" x2="-4.58071" y2="50.5391" gradientUnits="userSpaceOnUse">
<stop offset="0.244284" stop-color="#1F9947"/>
<stop offset="0.726308" stop-color="#33FF77"/>
</linearGradient>
</defs>
</svg>
